<?xml version="1.0" encoding="utf-8"?>
<!-- Svg Vector Icons : http://www.onlinewebfonts.com/icon -->
<!DOCTYPE svg PUBLIC "-//W3C//DTD SVG 1.1//EN" "http://www.w3.org/Graphics/SVG/1.1/DTD/svg11.dtd">
<svg version="1.1" xmlns="http://www.w3.org/2000/svg" xmlns:xlink="http://www.w3.org/1999/xlink" x="0px" y="0px" viewBox="0 0 1000 1000" enable-background="new 0 0 1000 1000" xml:space="preserve">
<metadata> Svg Vector Icons : http://www.onlinewebfonts.com/icon </metadata>
<g><path d="M38.7,15.9C10.3,74.3,7.3,875.9,11.6,957c2.7,48.6,51,30.6,56.1-24.5C78.5,814.2,51,651.1,48.5,497.1c-0.8-52.9,46.1-65.3,47-97c1-44.5,5.5-83.3-2-223.8C83.6-7,38.7,15.9,38.7,15.9z"/><path d="M483.8,118.6c-207.7,0-376.7,171.1-376.7,381.6c0,210.5,169.1,381.6,376.7,381.6c207.7,0,376.7-171.3,376.7-381.6C860.4,289.7,691.5,118.6,483.8,118.6z M483.8,729.1c-124.6,0-226-102.7-226-228.9c0-126.2,101.5-228.9,226-228.9c124.6,0,226,102.7,226,228.9C709.9,626.4,608.4,729.1,483.8,729.1z"/><path d="M483.8,293c-112.7,0-204.4,92.9-204.4,207.2c0,114.1,91.7,207,204.4,207c112.7,0,204.4-92.9,204.4-207C688.2,385.9,596.6,293,483.8,293z"/><path d="M986.1,256.4c5.1-44.9,5.9-98.8-2.2-175c-5.7-53.9-21.4-100.7-18.8-49.2c2.2,47.2,3.5,86.8,2.7,138c-1,51.3-17.8,55.5-18.6-3.3c-0.8-59-0.6-54.7-5.5-112.9c-4.9-58.2-20.4-56.1-19.8-5.5c0.8,50.4,0,65.5,0,117.2c0,26.1-4.5,40.2-8.8,40.2c-4.3-0.2-8.8-14.1-8.8-40.2c0-51.7-0.8-66.8,0-117.2c0.8-50.4-14.7-52.7-19.6,5.5c-4.9,58.2-4.7,53.9-5.5,112.9s-17.8,54.7-18.6,3.3c-1-51.2,0.4-90.9,2.7-138c2.4-51.3-13.3-4.7-19,49.2c-8.2,76.2-7.1,130.1-2.2,175c4.3,39,48.4,60.4,50,86c1.6,25.3-1.6,155.2-9.8,325.7c-8.8,181.5-17.8,322,30.8,322h0.2h0.2c48.6,0,39.6-140.5,30.8-322c-8.4-170.5-11.6-300.1-9.8-325.7C937.9,317.1,981.8,295.6,986.1,256.4z"/></g>
</svg>